<?xml version="1.0" standalone="no"?>
<!DOCTYPE svg PUBLIC "-//W3C//DTD SVG 20010904//EN"
 "http://www.w3.org/TR/2001/REC-SVG-20010904/DTD/svg10.dtd">
<svg version="1.0" xmlns="http://www.w3.org/2000/svg"
 width="1000.000000pt" height="1000.000000pt" viewBox="0 0 1000.000000 1000.000000"
 preserveAspectRatio="xMidYMid meet">
<metadata>
Created by potrace 1.14, written by Peter Selinger 2001-2017
</metadata>
<g transform="translate(0.000000,1000.000000) scale(0.100000,-0.100000)"
fill="#000000" stroke="none">
<path d="M37 9648 l-37 -10 0 -232 0 -232 63 -13 c34 -7 73 -15 87 -18 178
-32 434 -132 541 -213 110 -83 304 -270 449 -435 85 -96 182 -204 227 -254
l43 -46 -3 -3135 c-2 -1724 -6 -3157 -9 -3185 -3 -27 -9 -95 -12 -150 -4 -55
-9 -111 -11 -125 -2 -14 -9 -63 -15 -110 -10 -87 -12 -99 -30 -186 -27 -131
-104 -295 -170 -362 -82 -84 -258 -152 -430 -166 -139 -12 -190 -27 -233 -71
-59 -59 -80 -173 -53 -288 14 -58 77 -120 138 -134 40 -10 2310 -11 2356 -1
69 14 120 68 148 158 7 24 8 120 0 150 -2 8 -7 30 -11 48 -4 17 -11 32 -16 32
-5 0 -9 6 -9 13 -1 18 -70 64 -115 75 -22 6 -71 13 -110 16 -128 11 -159 16
-240 42 -142 46 -272 135 -328 226 -70 113 -124 352 -143 633 -2 33 -7 98 -11
145 -3 47 -8 1327 -10 2845 l-3 2760 26 -30 c15 -16 41 -46 58 -65 17 -19 56
-62 86 -95 59 -65 170 -190 202 -227 11 -13 52 -59 91 -102 40 -43 80 -88 90
-100 10 -12 49 -55 86 -96 37 -41 114 -127 171 -190 56 -63 117 -131 134 -150
17 -19 65 -73 106 -120 41 -46 86 -96 100 -111 14 -14 47 -51 73 -82 27 -30
63 -71 80 -90 18 -18 59 -65 92 -102 67 -77 62 -71 130 -146 28 -30 82 -90
120 -133 39 -43 81 -91 95 -106 28 -30 145 -161 173 -194 10 -12 45 -50 77
-86 32 -36 67 -74 77 -86 51 -59 150 -170 169 -188 11 -12 54 -59 95 -106 41
-46 79 -89 84 -96 26 -28 166 -184 214 -238 30 -34 70 -79 90 -101 20 -22 74
-83 121 -135 47 -52 87 -97 90 -100 13 -13 190 -212 261 -294 19 -22 48 -54
64 -71 32 -34 148 -163 211 -235 21 -24 48 -54 59 -65 11 -12 49 -54 85 -95
36 -40 70 -78 75 -84 6 -6 46 -51 90 -101 96 -108 254 -284 305 -340 20 -22
74 -83 120 -135 107 -120 140 -157 165 -184 11 -12 45 -50 75 -85 30 -35 71
-80 90 -100 19 -21 58 -64 87 -97 28 -32 68 -77 89 -99 20 -22 82 -92 138
-155 55 -63 110 -124 121 -136 11 -11 49 -54 85 -94 36 -40 76 -85 90 -100 22
-24 100 -113 149 -169 31 -35 156 -174 181 -201 14 -14 52 -57 85 -94 33 -38
71 -81 85 -96 25 -27 141 -157 170 -190 8 -9 43 -48 77 -86 34 -38 70 -79 80
-90 10 -12 54 -61 98 -109 111 -123 114 -125 175 -195 30 -35 66 -75 80 -90
14 -15 56 -63 94 -106 39 -43 95 -104 126 -135 53 -53 62 -57 126 -69 122 -22
219 13 266 95 l23 40 3 1020 c1 561 3 2413 5 4115 2 1702 6 3109 10 3125 3 17
9 57 12 90 11 99 43 205 90 300 49 100 106 165 174 200 97 48 260 93 396 109
136 16 193 42 236 104 22 32 24 48 27 156 2 106 0 125 -17 152 -22 36 -78 82
-112 92 -13 4 -537 8 -1164 10 -850 2 -1154 0 -1195 -9 -82 -17 -141 -69 -155
-136 -13 -57 -14 -139 -3 -188 25 -110 86 -157 223 -170 281 -28 269 -25 425
-96 102 -46 192 -136 247 -245 22 -43 42 -89 45 -102 4 -12 7 -25 8 -27 12
-37 20 -78 25 -124 3 -31 8 -69 10 -86 3 -16 7 -68 11 -115 3 -47 8 -110 11
-140 3 -30 7 -1360 9 -2955 l4 -2900 -21 24 c-21 26 -113 129 -189 214 -25 27
-53 59 -63 71 -10 11 -46 52 -80 90 -34 37 -71 78 -82 91 -11 12 -47 53 -80
90 -33 37 -65 73 -70 79 -6 6 -64 72 -130 146 -66 74 -129 144 -140 156 -11
12 -35 39 -54 60 -18 21 -65 75 -105 119 -39 43 -93 104 -121 135 -27 31 -79
89 -115 130 -36 40 -87 98 -115 128 -27 30 -57 62 -65 72 -8 9 -40 45 -70 79
-56 64 -75 86 -139 156 -20 22 -68 76 -106 119 -39 44 -77 87 -85 96 -15 17
-25 28 -160 180 -41 46 -82 91 -90 100 -8 9 -32 36 -54 61 -21 24 -69 78 -106
119 -89 100 -249 279 -275 309 -11 12 -29 33 -40 45 -96 106 -168 187 -196
221 -19 22 -43 49 -54 60 -17 17 -157 173 -290 324 -16 19 -51 57 -76 85 -26
28 -59 67 -75 86 -16 19 -36 42 -45 50 -9 8 -49 53 -90 99 -41 47 -81 92 -89
101 -8 9 -42 47 -75 85 -33 37 -67 75 -75 84 -9 9 -49 54 -90 101 -41 46 -79
90 -85 96 -5 6 -39 44 -75 84 -36 41 -76 86 -90 100 -14 15 -54 60 -90 101
-36 41 -74 84 -85 96 -41 44 -144 159 -165 183 -51 60 -116 134 -131 149 -20
20 -105 115 -184 205 -70 79 -107 121 -138 156 -46 50 -185 206 -213 239 -16
18 -40 45 -54 60 -14 15 -39 43 -55 62 -82 93 -200 225 -205 229 -3 3 -39 43
-80 90 -42 47 -89 100 -105 119 -17 18 -41 46 -55 61 -26 28 -142 158 -171
192 -9 10 -45 50 -79 88 -34 38 -70 78 -79 88 -88 102 -128 147 -142 161 -9 9
-40 43 -69 76 -29 33 -67 76 -84 95 -17 19 -85 96 -151 170 -66 74 -133 148
-150 164 -68 64 -12 61 -975 63 -562 1 -888 -2 -913 -9z"/>
</g>
</svg>
